<?xml version="1.0" encoding="utf-8"?>
<!-- Generator: Adobe Illustrator 27.5.0, SVG Export Plug-In . SVG Version: 6.00 Build 0)  -->
<svg version="1.1" id="Layer_1" xmlns="http://www.w3.org/2000/svg" xmlns:xlink="http://www.w3.org/1999/xlink" x="0px" y="0px"
	 viewBox="0 0 93.18 89.77" style="enable-background:new 0 0 93.18 89.77;" xml:space="preserve">
<style type="text/css">
	.st0{stroke:#FFFFFF;stroke-width:2;stroke-miterlimit:10;}
	.st1{fill:#FFFFFF;}
</style>
<g>
	<ellipse transform="matrix(0.2336 -0.9723 0.9723 0.2336 -8.2561 78.1617)" cx="45.45" cy="44.32" rx="38.66" ry="38.66"/>
	
		<ellipse transform="matrix(0.233 -0.9725 0.9725 0.233 -8.2353 78.1948)" class="st0" cx="45.45" cy="44.32" rx="32.73" ry="32.73"/>
</g>
<path id="XMLID_1420_" class="st1" d="M41.64,60.59h6.1V45.32h4.25l0.45-5.11h-4.71c0,0,0-1.91,0-2.91c0-1.21,0.24-1.68,1.41-1.68
	c0.94,0,3.3,0,3.3,0v-5.3c0,0-3.48,0-4.22,0c-4.54,0-6.58,2-6.58,5.82c0,3.33,0,4.08,0,4.08h-3.17v5.18h3.17V60.59z"/>
</svg>
