<?xml version="1.0" encoding="utf-8"?>
<!-- Generator: Adobe Illustrator 27.5.0, SVG Export Plug-In . SVG Version: 6.00 Build 0)  -->
<svg version="1.1" id="Layer_1" xmlns="http://www.w3.org/2000/svg" xmlns:xlink="http://www.w3.org/1999/xlink" x="0px" y="0px"
	 viewBox="0 0 93.18 89.77" style="enable-background:new 0 0 93.18 89.77;" xml:space="preserve">
<style type="text/css">
	.st0{fill:#FFFFFF;}
	.st1{fill:#2D519F;stroke:#FFFFFF;stroke-width:2;stroke-miterlimit:10;}
</style>
<path id="XMLID_1420_" class="st0" d="M41.64,60.59h6.1V45.32h4.25l0.45-5.11h-4.71c0,0,0-1.91,0-2.91c0-1.21,0.24-1.68,1.41-1.68
	c0.94,0,3.3,0,3.3,0v-5.3c0,0-3.48,0-4.22,0c-4.54,0-6.58,2-6.58,5.82c0,3.33,0,4.08,0,4.08h-3.17v5.18h3.17V60.59z"/>
<g>
	
		<ellipse transform="matrix(0.233 -0.9725 0.9725 0.233 -8.7878 78.6306)" class="st1" cx="45.45" cy="44.89" rx="32.73" ry="32.73"/>
</g>
<path id="XMLID_00000057867288114124118710000008147097756279492778_" class="st0" d="M41.64,61.16h6.1V45.89h4.25l0.45-5.11h-4.71
	c0,0,0-1.91,0-2.91c0-1.2,0.24-1.68,1.41-1.68c0.94,0,3.3,0,3.3,0v-5.3c0,0-3.48,0-4.22,0c-4.54,0-6.58,2-6.58,5.82
	c0,3.33,0,4.08,0,4.08h-3.17v5.18h3.17V61.16z"/>
</svg>
