<?xml version="1.0" encoding="utf-8"?>
<!-- Generator: Adobe Illustrator 27.5.0, SVG Export Plug-In . SVG Version: 6.00 Build 0)  -->
<svg version="1.1" id="Layer_1" xmlns="http://www.w3.org/2000/svg" xmlns:xlink="http://www.w3.org/1999/xlink" x="0px" y="0px"
	 viewBox="0 0 93.18 89.77" style="enable-background:new 0 0 93.18 89.77;" xml:space="preserve">
<style type="text/css">
	.st0{fill:#FFFFFF;}
	.st1{fill:#2D519F;stroke:#FFFFFF;stroke-width:2;stroke-miterlimit:10;}
</style>
<path id="XMLID_1420_" class="st0" d="M41.64,60.59h6.1V45.32h4.25l0.45-5.11h-4.71c0,0,0-1.91,0-2.91c0-1.21,0.24-1.68,1.41-1.68
	c0.94,0,3.3,0,3.3,0v-5.3c0,0-3.48,0-4.22,0c-4.54,0-6.58,2-6.58,5.82c0,3.33,0,4.08,0,4.08h-3.17v5.18h3.17V60.59z"/>
<g>
	<g>
		<circle class="st1" cx="47.66" cy="43.35" r="32.73"/>
	</g>
	<g id="XMLID_1347_">
		<path id="XMLID_1352_" class="st0" d="M47.28,31.61c3.82,0,4.27,0.01,5.78,0.08c1.4,0.06,2.15,0.3,2.66,0.49
			c0.67,0.26,1.15,0.57,1.65,1.07c0.5,0.5,0.81,0.98,1.07,1.65c0.2,0.5,0.43,1.26,0.49,2.66c0.07,1.51,0.08,1.96,0.08,5.78
			c0,3.82-0.01,4.28-0.08,5.78c-0.06,1.4-0.3,2.15-0.49,2.66c-0.26,0.67-0.57,1.15-1.07,1.65c-0.5,0.5-0.98,0.81-1.65,1.07
			c-0.5,0.2-1.26,0.43-2.66,0.49c-1.51,0.07-1.96,0.08-5.78,0.08c-3.82,0-4.28-0.01-5.78-0.08c-1.4-0.06-2.15-0.3-2.66-0.49
			c-0.67-0.26-1.15-0.57-1.65-1.07c-0.5-0.5-0.81-0.98-1.07-1.65c-0.2-0.5-0.43-1.26-0.49-2.66c-0.07-1.51-0.08-1.96-0.08-5.78
			c0-3.82,0.01-4.27,0.08-5.78c0.06-1.4,0.3-2.15,0.49-2.66c0.26-0.67,0.57-1.14,1.07-1.65c0.5-0.5,0.98-0.81,1.65-1.07
			c0.5-0.2,1.26-0.43,2.66-0.49C43.01,31.63,43.46,31.61,47.28,31.61 M47.28,29.03c-3.89,0-4.38,0.02-5.9,0.09
			c-1.52,0.07-2.56,0.31-3.47,0.67c-0.94,0.37-1.74,0.86-2.54,1.65c-0.8,0.8-1.29,1.59-1.65,2.54c-0.35,0.91-0.6,1.95-0.67,3.47
			c-0.07,1.53-0.09,2.01-0.09,5.9c0,3.89,0.02,4.38,0.09,5.9c0.07,1.52,0.31,2.56,0.67,3.47c0.37,0.94,0.85,1.74,1.65,2.54
			c0.8,0.8,1.59,1.29,2.54,1.65c0.91,0.35,1.95,0.6,3.47,0.67c1.53,0.07,2.01,0.09,5.9,0.09c3.89,0,4.37-0.02,5.9-0.09
			c1.52-0.07,2.56-0.31,3.47-0.67c0.94-0.37,1.74-0.86,2.54-1.65c0.8-0.8,1.29-1.59,1.65-2.54c0.35-0.91,0.6-1.95,0.67-3.47
			c0.07-1.53,0.09-2.01,0.09-5.9c0-3.89-0.02-4.37-0.09-5.9c-0.07-1.52-0.31-2.56-0.67-3.47c-0.37-0.94-0.86-1.74-1.65-2.54
			c-0.8-0.8-1.59-1.29-2.54-1.65c-0.91-0.35-1.95-0.6-3.47-0.67C51.65,29.05,51.17,29.03,47.28,29.03"/>
		<path id="XMLID_1349_" class="st0" d="M47.28,36c-4.06,0-7.35,3.29-7.35,7.35c0,4.06,3.29,7.35,7.35,7.35
			c4.06,0,7.35-3.29,7.35-7.35C54.63,39.29,51.34,36,47.28,36 M47.28,48.12c-2.64,0-4.77-2.14-4.77-4.77c0-2.64,2.14-4.77,4.77-4.77
			c2.64,0,4.77,2.14,4.77,4.77C52.05,45.98,49.92,48.12,47.28,48.12"/>
		<path id="XMLID_1348_" class="st0" d="M56.64,35.71c0,0.95-0.77,1.72-1.72,1.72c-0.95,0-1.72-0.77-1.72-1.72
			c0-0.95,0.77-1.72,1.72-1.72C55.87,33.99,56.64,34.76,56.64,35.71"/>
	</g>
</g>
</svg>
