<?xml version="1.0" encoding="utf-8"?>
<!-- Generator: Adobe Illustrator 27.5.0, SVG Export Plug-In . SVG Version: 6.00 Build 0)  -->
<svg version="1.1" id="Layer_1" xmlns="http://www.w3.org/2000/svg" xmlns:xlink="http://www.w3.org/1999/xlink" x="0px" y="0px"
	 viewBox="0 0 93.18 89.77" style="enable-background:new 0 0 93.18 89.77;" xml:space="preserve">
<style type="text/css">
	.st0{fill:#FFFFFF;}
	.st1{fill:#0B121C;}
	.st2{fill:#0B121C;stroke:#FFFFFF;stroke-width:2;stroke-miterlimit:10;}
</style>
<path id="XMLID_1420_" class="st0" d="M41.64,60.59h6.1V45.32h4.25l0.45-5.11h-4.71c0,0,0-1.91,0-2.91c0-1.21,0.24-1.68,1.41-1.68
	c0.94,0,3.3,0,3.3,0v-5.3c0,0-3.48,0-4.22,0c-4.54,0-6.58,2-6.58,5.82c0,3.33,0,4.08,0,4.08h-3.17v5.18h3.17V60.59z"/>
<g>
	<g>
		<circle class="st1" cx="45.45" cy="44.32" r="38.66"/>
		<circle class="st2" cx="45.45" cy="44.32" r="32.73"/>
	</g>
	<path class="st0" d="M58.74,32.22c-0.31-0.69-0.96-1.08-1.83-1.08c-0.63,0-1.19,0.2-1.26,0.23c-0.19,0.07-18.59,7.11-26.14,10.2
		c-0.66,0.27-1.09,0.65-1.27,1.14c-0.28,0.75,0.25,1.52,0.75,1.74c1.88,0.83,5.78,1.97,7,2.32c0.4,1.34,1.81,6.01,2.47,8.02
		c0.17,0.52,0.68,0.83,1.35,0.83c0.1,0,0.16-0.01,0.16-0.01c0.18-0.02,0.34-0.11,0.45-0.24c0.1-0.11,0.16-0.25,0.17-0.4l0.39-5.65
		c0.74,0.55,1.81,1.36,3,2.25c2.35,1.76,5.15,3.84,6.71,4.97c0.56,0.4,1.09,0.6,1.6,0.6c1.13,0,1.78-0.97,2-1.8
		c1.3-5.05,3.2-14.59,4.34-20.29l0.25-1.25C59.03,33.02,58.89,32.56,58.74,32.22z M39.68,47.95l-0.35,5.01
		c-0.85-2.72-2.11-6.91-2.12-6.96c0-0.01-0.02-0.02-0.02-0.04l0-0.03l14.39-9.37c0,0,0.98-0.67,1.35-0.75
		c0.5-0.11,0.62,0.09,0.53,0.21c-0.35,0.47-2,1.89-2,1.89l-11.47,9.5l0,0.01C39.81,47.54,39.69,47.74,39.68,47.95z"/>
</g>
</svg>
