<?xml version="1.0" encoding="UTF-8"?><svg id="Layer_2" xmlns="http://www.w3.org/2000/svg" width="62.51mm" height="26.91mm" viewBox="0 0 177.18 76.27"><defs><style>.cls-1{fill:#ea7b4b;}</style></defs><g id="Layer_1-2"><path class="cls-1" d="m131.97,3.36c-7.99-2.12-14.79-2.9-19.76-3.19-6.78-.4-11.97,0-18.13.48-2.36.18-8.68.71-18.78,2.34-14.04,2.26-24.65,4.9-27.77,5.69-14.3,3.63-21.57,5.64-30.11,10.66-6.06,3.57-10.54,7.31-13.68,12.82C2.48,34.35.03,38.77,0,44.82c-.04,8.96,5.28,15.18,7.2,17.43,2.37,2.77,7.24,7.49,18.58,11.09,6.82,2.17,13.43,3.17,32.84,2.88,7.34-.11,17.09-.28,31.34-1.38,15.84-1.23,27.63-2.19,42.21-5.61.2-.05,5.57-1.49,16.32-4.37,1.12-.3,8.75-2.37,18.19-5.93,6.15-2.32,7.92-3.33,9.15-5.3,2.62-4.21.81-9.67-.24-12.7-1.28-3.69-4.84-11.62-19.73-23.19-5.33-4.14-13.26-9.56-23.88-14.38Z"/></g></svg>