<?xml version="1.0" encoding="utf-8"?>
<!-- Generator: Adobe Illustrator 27.3.1, SVG Export Plug-In . SVG Version: 6.00 Build 0)  -->
<svg version="1.1" id="Layer_2_00000094576852659662911790000010184186993680768190_"
	 xmlns="http://www.w3.org/2000/svg" xmlns:xlink="http://www.w3.org/1999/xlink" x="0px" y="0px" viewBox="0 0 244.9 75.9"
	 style="enable-background:new 0 0 244.9 75.9;" xml:space="preserve">
<style type="text/css">
	.st0{fill:#EA7B4B;}
</style>
<g id="Layer_1-2">
	<path class="st0" d="M182.4,4c-11-2.1-20.4-2.9-27.3-3.1c-9.4-0.4-16.5,0-25.1,0.5c-3.3,0.2-12,0.7-26,2.3
		C84.7,5.8,70,8.4,65.7,9.2c-19.8,3.6-29.8,5.6-41.6,10.5c-8.4,3.5-14.6,7.2-18.9,12.6C3.4,34.6,0,38.9,0,44.9
		c-0.1,8.8,7.3,15,10,17.2c3.3,2.7,10,7.4,25.7,10.9c9.4,2.1,18.6,3.1,45.4,2.8c10.1-0.1,23.6-0.3,43.3-1.4
		c21.9-1.2,38.2-2.2,58.3-5.5c0.3,0,7.7-1.5,22.6-4.3c1.5-0.3,12.1-2.3,25.1-5.8c8.5-2.3,11-3.3,12.6-5.2c3.6-4.2,1.1-9.5-0.3-12.5
		c-1.8-3.6-6.7-11.5-27.3-22.9C208.1,14.1,197.1,8.7,182.4,4L182.4,4z"/>
</g>
</svg>
