<?xml version="1.0" encoding="UTF-8"?><svg id="Layer_2" xmlns="http://www.w3.org/2000/svg" width="46.68" height="59.38" viewBox="0 0 46.68 59.38"><defs><style>.cls-1{fill:#86a1ea;}</style></defs><g id="Layer_1-2"><path class="cls-1" d="m23.6,2.41c-.67-1.06-1.01-1.59-1.54-1.91C21.04-.12,19.91,0,19.6.04c-.33.04-1.31.18-2.03.92-.71.73-.76,1.61-.8,2.43-.03.57-.08,1.82.76,3.01.44.62.96.99,1.27,1.21.51.36.94.66,1.6.75.82.12,1.47-.17,1.6-.23,1.27-.59,1.52-1.9,1.56-2.3.02-.23.06-.67-.21-.99-.1-.12-.23-.23-.23-.23,0,0,.26.17.42.44.21.37.13.79.05,1.15-.03.13-.09.41-.26.74-.17.33-.36.55-.47.67-.28.31-.54.51-.62.57-.1.07-.48.33-1.11.54-.38.12-.48.1-1.07.22-.81.16-1.22.25-1.61.45-.64.34-.99.88-1.13,1.14-.41.77-.31,1.51-.16,2.62.11.85.21.76.32,1.58.14,1.07.09,2.03.06,2.51-.01.2-.07,1.01.07,2,.04.3.11.65.35.74.21.08.44-.06.69-.21.68-.4.58-.73,1.2-1.12.33-.2.58-.26.65-.5.05-.17-.05-.32-.1-.44-.21-.45,0-.78.13-1.54.15-.92.06-1.83.04-1.97-.05-.48-.15-.95.13-1.17.01-.01.16-.13.26-.08.13.05.11.32.1.65,0,.56.05.34.06,1.13,0,.66,0,.99-.06,1.24-.06.24-.15.44-.23.88-.08.42-.06.55.01.61.15.11.47-.05.57-.1.46-.23.63-.55.94-.94.39-.48.44-.36,1.22-1.13.47-.47.79-.85.97-1.06.69-.83,1.13-1.53,1.7-2.45.5-.8.37-.66.73-1.23.22-.34.88-1.34,1.85-2.16.12-.1.47-.39.53-.34.04.03-.06.21-.13.32-.43.69-.97,1.24-1.11,1.39-.16.17-.41.54-.91,1.28-.96,1.42-.97,1.66-1.57,2.49-.5.7-.94,1.14-1.58,1.8-.93.95-1.75,1.63-2.49,2.24-.68.56-1.09.87-1.94,1.61-.71.63-.98.9-1.25,1.24-.19.23-.6.77-.94,1.54-.39.89-.31,1.25-.78,1.76-.28.31-.44.32-.82.61-.78.58-.97,1.18-1.57,2.2-.37.64-.21.26-1.51,2.16-1.46,2.13-1.31,2.1-2.01,3-1.2,1.54-1.34,1.28-1.99,2.35-.41.68-.64,1.26-1.35,1.78-.22.16-.58.38-1.04.67-.54.34-.81.51-1,.61-1.1.58-1.47.2-2.4.69-.7.36-1.12.9-1.41,1.27-.27.35-.53.67-.69,1.17-.17.53-.13,1.14-.03,2.35.05.63.08.63.07.94,0,.91-.25,1.4-.07,1.49.17.09.56-.28.73-.48.06-.07.28-.34.38-.77.08-.35,0-.4.04-.98.03-.41.05-.62.16-.87.11-.25.27-.41.6-.74.24-.25.47-.47.82-.67.2-.12.63-.33.7-.25.07.08-.19.39-.29.51-.08.09-.15.16-.45.44-.37.34-.46.41-.54.58-.03.06-.16.33-.06.41.08.07.3,0,.87-.33.61-.35.92-.52,1.22-.76.18-.14.55-.45,1.41-1.53.46-.57.6-.8.94-1.24.68-.9,1.26-1.52,1.72-2.01,1.09-1.17,1.27-1.15,2.71-2.56,1.29-1.27,1.05-1.19,2.38-2.48,1.36-1.32,2.04-1.98,2.57-2.37.5-.37.84-.57,1.17-1.05.31-.44.29-.66.81-1.75.17-.35.32-.68.54-1.06.34-.59.63-.94,1.17-1.62,1.4-1.76,1.2-1.57,1.45-1.84.59-.65.62-.53,2.08-1.83,1-.89,1.08-1.03,2.17-1.98.88-.77.82-.68,1.26-1.09.97-.91,1.08-1.21,1.95-2.07.91-.89.93-.69,1.73-1.49.51-.51,1.26-1.26,1.85-2.41.38-.74.71-1.38.69-2.29,0-.4-.03-1.61-.97-2.33-.7-.54-1.57-.53-2.26-.52-1.44.01-1.69.54-2.82.44-1.21-.11-2.06-.82-2.26-.99-.69-.58-.61-.92-1.71-2.65Z"/><path class="cls-1" d="m16.2,16.29c-.41-1.13-.59-1.42-.98-2.41-.6-1.55-.4-1.51-.86-2.66-.65-1.6-1.03-2.55-2.05-3.04-1.14-.55-2.36-.17-2.58-.1-1.15.35-1.75,1.14-2.16,1.68-.8,1.04-1.01,2.08-1.26,3.25-.14.7-.09.73-.26,2.47-.24,2.3-.34,2.36-.45,3.73-.07.98-.01.9-.06,3.59-.01.91-.03,2.23-.1,3.82-.11,2.83-.21,2.63-.22,4.35-.02,1.91.1,2.14-.07,3.18-.25,1.55-.7,2.16-.38,2.42.48.39,2.28-.34,2.68-1.5.14-.42.01-.63,0-1.19-.03-1.22.56-1.92,1.13-3.08.12-.25.46-1.46,1.13-3.88.64-2.31.96-3.47.99-3.92.1-1.71-.37-1.76-.28-4.01.05-1.18.19-1.6-.09-2.34-.32-.82-.78-1.01-.99-1.98-.07-.32-.08-.7-.09-1.45-.01-.48-.03-1.45.08-1.46.09,0,.22.53.29.89.1.56.02.67.1,1.23.04.3.1.72.33,1.21.23.49.39.52.62,1.01.04.09.21.44.31,1.03.21,1.17-.05,1.96-.06,3.27,0,.7.07.39.25,2.57.11,1.29.16,1.93.14,2.45-.03.97-.14,1.41-.1,2.57.05,1.39.25,1.53.35,1.56.19.04.41-.22.68-.54.46-.55.53-.89.93-1.54.39-.63.42-.45.7-.95.43-.76.35-1.13.83-1.65.22-.24.23-.15.64-.51.28-.24.8-.73,1.24-1.46.18-.29.49-.82.64-1.52.19-.88-.02-1.67-.43-3.21-.04-.16-.24-.88-.59-1.86Z"/><path class="cls-1" d="m4.62,41.9c-.39.63-.28.87-.62,1.88-.14.4-.37,1.06-.86,1.81-.48.74-.73,1.11-1.12,1.32-.17.09-.38.17-.44.37-.08.25.13.6.42.73.08.04.24.09,1.17-.12.56-.13.54-.16.88-.22.67-.12.79-.03.94-.17.26-.24-.06-.58.18-1.15.16-.38.47-.62.55-.68.36-.27.52-.18.75-.41.13-.13.15-.22.34-.95.21-.79.26-.93.39-1.1.18-.22.38-.33.62-.46.69-.37.97-.2,1.38-.49.53-.38.59-1.07.6-1.22.01-.14.05-.9-.47-1.37-.35-.32-.61-.19-.94-.54-.39-.41-.28-.87-.47-.9-.22-.04-.37.56-.94,1.27-.48.6-.66.53-1.53,1.44-.43.45-.64.67-.83.98Z"/><path class="cls-1" d="m32.17,12.37c-.17-.07-.48.52-1.59,1.7-.18.19-.66.66-1.63,1.58-2.03,1.94-1.85,1.8-2.45,2.36-1.46,1.36-1.57,1.3-2.91,2.56-1.03.97-1.55,1.46-2.12,2.19-.75.96-1.27,1.91-1.56,2.45-.65,1.19-.62,1.39-1.13,2.1-.39.53-.79.92-1.59,1.7-.8.77-.9.8-1.87,1.7-.5.47-.97.95-1.9,1.9-1.04,1.07-1.31,1.38-1.44,1.9-.06.23-.21.86.12,1.5.35.66,1.01.93,1.47,1.12.17.07.53.2,1.84.35,1.21.13,1.82.2,2.42.14,1.17-.1,1.27-.41,2.39-.43.84-.02,1.47.14,1.72.2,1.08.29,1.79.84,2.09,1.07,1.95,1.47,4.44,2.74,5.67,3.37,1.45.74,2.23.99,4.11,2.04.53.3-.04,0,1.87,1.21.85.54,1.71,1.07,2.05,1.96.1.25.1.39.03.46-.19.18-.82-.23-1.53-.49-.56-.2-1.21-.23-2.51-.29-1.65-.07-2.48-.11-3.37.17-.64.2-.94.42-1.72.89-.1.06-2.59,1.54-5.21,2.56-1.6.62-1.51.39-3.28,1.09-1.19.47-2.2.87-3.43,1.58-1.61.93-1.95,1.43-3.19,1.7-.6.13-1.28.28-2.09.09-.66-.15-.84-.4-1.47-.4-.23,0-.95.03-1.53.49-.55.44-.41.82-.86,1.01-.24.1-.67.01-1.53-.17-.82-.18-1.01-.28-1.35-.17-.34.1-.38.28-.74.35-.43.08-.58-.13-.92-.12-.57.02-.66.66-1.53,1.47-.78.72-1.3.77-1.44,1.35-.06.27-.04.66.15.75.31.14.71-.64,1.66-.86.42-.1.63-.01,1.41.09.14.02.03,0,2.36.14,4.08.25,3.9.27,4.17.26,1.24-.04,2.39-.53,4.69-1.38,1.37-.51,1.51-.64,2.42-.89,1.34-.37,2.16-.4,3.59-.58,1.8-.22,1.37-.28,4.63-.81,2.91-.47,3.15-.4,5.3-.81,1.88-.35,1.71-.4,3.56-.75,2.94-.55,4.41-.83,5.8-.78,1.94.07,2.66.49,4.11.03.5-.16,1.44-.47,2.12-1.32,1.04-1.32.62-3.03.49-3.54-.43-1.78-1.53-2.53-4.51-5.27-2.96-2.72-2.2-2.28-5.43-5.24-1.58-1.45-2.94-3.11-4.69-4.38-.56-.41-1.85-1.29-2.67-2.88-.16-.31-.42-.81-.55-1.5-.18-.88-.06-1.6.71-4.09.48-1.55.6-1.81,1.13-3.57.53-1.74.64-2.22.71-2.56.27-1.35.14-1.51.37-2.97.33-2.11.85-3.24.61-3.34Z"/></g></svg>